<svg xmlns="http://www.w3.org/2000/svg" xmlns:xlink="http://www.w3.org/1999/xlink" viewBox="0 0 254.35 284.19"><defs><style>.cls-1{fill:#7db8ea;}.cls-2{fill:#a4d2f4;}.cls-3{fill:#cce7ff;}.cls-4{fill:#eef9ff;}.cls-5{fill:url(#Безымянный_градиент_2);}.cls-6{fill:url(#Безымянный_градиент_2-2);}.cls-7{fill:url(#Безымянный_градиент_2-3);}.cls-8{fill:#484d57;}.cls-9{fill:url(#Безымянный_градиент_2-4);}.cls-10{fill:url(#Безымянный_градиент_2-5);}</style><linearGradient id="Безымянный_градиент_2" y1="103.71" x2="71.5" y2="103.71" gradientUnits="userSpaceOnUse"><stop offset="0" stop-color="#0053ff"/><stop offset="1" stop-color="#00b4ff"/></linearGradient><linearGradient id="Безымянный_градиент_2-2" x1="147.44" y1="186.65" x2="185.78" y2="186.65" xlink:href="#Безымянный_градиент_2"/><linearGradient id="Безымянный_градиент_2-3" x1="140.71" y1="17.23" x2="150.29" y2="30.81" xlink:href="#Безымянный_градиент_2"/><linearGradient id="Безымянный_градиент_2-4" x1="78.7" y1="148.07" x2="150.19" y2="148.07" gradientTransform="translate(-81.55 330.54) rotate(-78.23)" xlink:href="#Безымянный_градиент_2"/><linearGradient id="Безымянный_градиент_2-5" x1="99.44" y1="129.65" x2="137.78" y2="129.65" gradientTransform="matrix(-1, 0, 0, 1, 237.22, 0)" xlink:href="#Безымянный_градиент_2"/></defs><title>how</title><g id="Слой_2" data-name="Слой 2"><g id="OBJECTS"><path class="cls-1" d="M131.26,239.78c.08-.06,24.18-11.8,47.61-23.2,11.65,7.52,23.85,14.21,36.08,20.84q5.56,3.64,11.13,7.27L182,270.18a9.35,9.35,0,0,1-9.35,0s-24.37-14.34-39.39-23a4.35,4.35,0,0,1-2.17-3.77Z"/><path class="cls-2" d="M132.88,236.44,173.46,213c13.27,9,27.38,16.78,41.53,24.45l8.14,5.33-41.39,23.92a7.39,7.39,0,0,1-7.39,0L132.88,242.5A3.5,3.5,0,0,1,132.88,236.44Z"/><path class="cls-3" d="M254.35,274l-6.91,3.47L86.73,34.53c0-2.45,2.43-5.31,4.9-6.58a12.82,12.82,0,0,1,12.2.36l143.58,82A13.12,13.12,0,0,1,254,121.7Z"/><path class="cls-3" d="M247.44,277.52,87.06,185.45,86.73,34.53a4.91,4.91,0,0,1,7.35-4.27l147.81,84.67a10.37,10.37,0,0,1,5.22,9Z"/><path class="cls-1" d="M87,161.46,86.73,34.53a4.91,4.91,0,0,1,7.35-4.27l147.81,84.67a10.37,10.37,0,0,1,5.22,9l.3,131.36Z"/><polygon class="cls-4" points="93.32 37.85 240.06 122.07 240.36 240.26 93.32 154.6 93.32 37.85"/><path class="cls-5" d="M57.94,131.25c-.72,1.5-2.2,1.48-3.42.21-14.25-14.87-39.06-7.7-53.31-22.57a5.11,5.11,0,0,1-.83-5.2L13.56,76.16c.72-1.5,2.2-1.48,3.43-.21C31.23,90.83,56,83.65,70.29,98.52a5.11,5.11,0,0,1,.83,5.21Z"/><path class="cls-3" d="M65.28,106.62c-2.44-2.36-3.59-6-2.19-8.93C50.52,89.86,33.27,91.83,20.71,84c-1.38,2.89-4.79,4-7.23,1.59L6.2,100.77c2.44,2.36,3.59,6,2.19,8.93,12.56,7.84,29.81,5.88,42.37,13.71,1.38-2.89,4.79-4,7.23-1.6l0,0,7.28-15.2Zm-33.66,5.72c-5.38-1-7.76-6-5.47-10.75s8.36-7.53,13.74-6.52,7.76,6,5.47,10.75S37,113.35,31.61,112.34Z"/><path class="cls-6" d="M185.78,195.82c0,1-.81,1.37-1.8,1-11.58-4.36-23.16,6-34.74,1.6a3.07,3.07,0,0,1-1.8-2.6V177.49c0-1,.81-1.37,1.8-1,11.58,4.36,23.16-6,34.74-1.6a3.07,3.07,0,0,1,1.8,2.6Z"/><path class="cls-3" d="M183.37,180.57a4.81,4.81,0,0,1-3.5-4.27c-8.84-1-17.68,4.56-26.52,3.56a2.65,2.65,0,0,1-3.5,2.74v10.13a4.82,4.82,0,0,1,3.5,4.27c8.84,1,17.68-4.55,26.52-3.56a2.66,2.66,0,0,1,3.5-2.74h0V180.58Zm-16.76,11.83a4.37,4.37,0,0,1-5.75-4.4,7.83,7.83,0,0,1,5.75-7.1,4.37,4.37,0,0,1,5.75,4.4A7.83,7.83,0,0,1,166.61,192.41Z"/><path class="cls-3" d="M235.49,78.6,150.1,29.31l-1.68-6.81a9.73,9.73,0,0,0-3.84-5.41L115.82.49c-1.61-.93-3.35-.5-3.86,1L110.25,6.3,107.93,5C106.32,4,105,4.79,105,6.64l0,11.2a6.45,6.45,0,0,0,2.91,5L235.44,96.52c1.62.93,2.94.18,2.94-1.67l0-11.2A6.45,6.45,0,0,0,235.49,78.6Z"/><path class="cls-7" d="M145.3,23.16l1-.55c.19-.11.19-.46,0-.79a1,1,0,0,0-.35-.37.35.35,0,0,0-.35,0l-1,.54-.94-1.64a1,1,0,0,0-.35-.37.35.35,0,0,0-.35,0c-.18.12-.18.47,0,.79l.94,1.65-1,.54c-.19.11-.19.46,0,.79a1,1,0,0,0,.35.37.35.35,0,0,0,.35,0l1-.54.94,1.63a1,1,0,0,0,.35.37.35.35,0,0,0,.35,0c.18-.11.19-.47,0-.79Z"/><polygon class="cls-4" points="108.04 10.08 108.01 19.72 235.34 93.22 235.37 83.58 108.04 10.08"/><path class="cls-8" d="M114.17,20.3,113.41,17l.43.25.39,1.91.15.71.13-.53.39-1.48.43.25.37,1.9.12.63.14-.48.42-1.44.41.23L116,21.37l-.44-.25-.39-2-.1-.55-.5,1.95Z"/><path class="cls-8" d="M118.57,22.82l-.76-3.34.43.25.39,1.91.15.71.13-.53.39-1.48.43.25.37,1.9.12.63.14-.48.42-1.44.41.23-.77,2.46-.44-.25-.39-2-.1-.55-.5,1.95Z"/><path class="cls-8" d="M123,25.35,122.21,22l.43.25.39,1.9.15.71.13-.53.39-1.48.43.25.37,1.9.12.63.14-.48.42-1.44.41.23-.77,2.46-.44-.25-.39-2-.1-.55-.5,2Z"/><path class="cls-8" d="M126.76,27.53V27l.48.27v.56Z"/><path class="cls-8" d="M128.75,27.81l.41.16a1.24,1.24,0,0,0,.64,1q.29.16.43.11a.24.24,0,0,0,.14-.24.56.56,0,0,0-.12-.33,3.57,3.57,0,0,0-.43-.41,7.69,7.69,0,0,1-.64-.6,1.52,1.52,0,0,1-.27-.43,1.2,1.2,0,0,1-.09-.44.6.6,0,0,1,.08-.32.34.34,0,0,1,.21-.16.57.57,0,0,1,.27,0,1.36,1.36,0,0,1,.36.15,2.36,2.36,0,0,1,.51.39,1.61,1.61,0,0,1,.32.45,1.8,1.8,0,0,1,.14.53l-.41-.17a1,1,0,0,0-.16-.44,1.1,1.1,0,0,0-.38-.34c-.19-.11-.33-.15-.41-.12a.18.18,0,0,0-.12.19.45.45,0,0,0,.05.2.86.86,0,0,0,.16.22l.37.34c.3.26.5.46.62.58a1.5,1.5,0,0,1,.28.42,1.18,1.18,0,0,1,.1.48.59.59,0,0,1-.12.39.4.4,0,0,1-.35.13,1.22,1.22,0,0,1-.52-.18,2.15,2.15,0,0,1-.73-.66A2.08,2.08,0,0,1,128.75,27.81Z"/><path class="cls-8" d="M132.26,27.25v-.57l.42.24v.57Zm0,3.45V27.79l.42.24v2.91Z"/><path class="cls-8" d="M134.27,31.85V28.94l.38.22v.41a.44.44,0,0,1,.31-.17.76.76,0,0,1,.44.12,1.45,1.45,0,0,1,.7.91.55.55,0,0,1,.76-.07,1.49,1.49,0,0,1,.57.57,1.72,1.72,0,0,1,.2.85v2l-.42-.24V31.71a1.91,1.91,0,0,0,0-.45.89.89,0,0,0-.4-.52.41.41,0,0,0-.43,0c-.12.07-.17.25-.17.55v1.69l-.42-.24V30.81a1.3,1.3,0,0,0-.1-.55.78.78,0,0,0-.33-.36.5.5,0,0,0-.33-.08.28.28,0,0,0-.22.2,1.7,1.7,0,0,0-.07.57v1.51Z"/><path class="cls-8" d="M139.19,35.8v-4l.38.22v.38a.47.47,0,0,1,.3-.16.75.75,0,0,1,.41.13,1.8,1.8,0,0,1,.56.51,2.39,2.39,0,0,1,.37.75,3,3,0,0,1,.12.84,1.66,1.66,0,0,1-.14.73.52.52,0,0,1-.4.32.82.82,0,0,1-.55-.12,1.4,1.4,0,0,1-.38-.32,2.14,2.14,0,0,1-.27-.42V36Zm.38-2.33a2.06,2.06,0,0,0,.19.94,1.25,1.25,0,0,0,.47.54.39.39,0,0,0,.48,0,1,1,0,0,0,.2-.75,2.08,2.08,0,0,0-.2-.94,1.24,1.24,0,0,0-.46-.54.38.38,0,0,0-.47,0A1,1,0,0,0,139.57,33.46Z"/><path class="cls-8" d="M142.79,36.75v-4l.42.24v4Z"/><path class="cls-8" d="M146.51,38l.43.31a.61.61,0,0,1-.38.47.92.92,0,0,1-.71-.16,2.25,2.25,0,0,1-.86-.89,2.6,2.6,0,0,1-.32-1.29q0-.73.32-1a.75.75,0,0,1,.83.07,2.14,2.14,0,0,1,.81.86,2.67,2.67,0,0,1,.31,1.3s0,.07,0,.13l-1.84-1.06a2,2,0,0,0,.23.87,1.4,1.4,0,0,0,.52.55.51.51,0,0,0,.39.08A.44.44,0,0,0,146.51,38Zm-1.38-1.59,1.38.79a1.7,1.7,0,0,0-.16-.64,1.34,1.34,0,0,0-.52-.58.47.47,0,0,0-.49-.05A.55.55,0,0,0,145.13,36.36Z"/><path class="cls-8" d="M148.42,40V37.08l.38.22v.41a.44.44,0,0,1,.31-.17.75.75,0,0,1,.44.12,1.45,1.45,0,0,1,.7.91.55.55,0,0,1,.76-.07,1.48,1.48,0,0,1,.57.57,1.72,1.72,0,0,1,.2.85v2l-.42-.24V39.84a1.87,1.87,0,0,0,0-.45.85.85,0,0,0-.15-.29.86.86,0,0,0-.25-.22.41.41,0,0,0-.43,0q-.17.1-.17.55v1.69l-.42-.24V38.94a1.31,1.31,0,0,0-.1-.55.77.77,0,0,0-.33-.36.5.5,0,0,0-.33-.08.28.28,0,0,0-.22.2,1.71,1.71,0,0,0-.07.57v1.51Z"/><path class="cls-8" d="M153.35,39.37v-.57l.42.24v.57Zm0,3.45V39.91l.42.24v2.91Z"/><path class="cls-8" d="M155.36,44V41.07l.38.22v.41q.27-.32.79,0a1.75,1.75,0,0,1,.41.33,1.57,1.57,0,0,1,.28.41,1.76,1.76,0,0,1,.13.44,3.61,3.61,0,0,1,0,.49v1.79l-.42-.24V43.12a1.9,1.9,0,0,0,0-.48,1,1,0,0,0-.17-.34,1,1,0,0,0-.29-.26A.5.5,0,0,0,156,42q-.19.09-.19.65v1.59Z"/><path class="cls-8" d="M159,42.6V42l.42.24v.57Zm0,3.45V43.14l.42.24v2.91Z"/><path class="cls-8" d="M161,47.21V44.3l.38.22v.41q.27-.32.79,0a1.75,1.75,0,0,1,.41.33,1.55,1.55,0,0,1,.28.41,1.73,1.73,0,0,1,.13.44,3.63,3.63,0,0,1,0,.49v1.79l-.42-.24V46.35a1.9,1.9,0,0,0,0-.48,1,1,0,0,0-.17-.34,1,1,0,0,0-.29-.26.5.5,0,0,0-.46-.07q-.19.09-.2.65v1.59Z"/><path class="cls-8" d="M164.5,49.48l.41.31a.87.87,0,0,0,.14.4,1.29,1.29,0,0,0,.43.38.63.63,0,0,0,.45.12.32.32,0,0,0,.21-.26,3.34,3.34,0,0,0,0-.62.57.57,0,0,1-.68,0,1.94,1.94,0,0,1-.79-.89,2.78,2.78,0,0,1-.28-1.2,1.65,1.65,0,0,1,.13-.69.53.53,0,0,1,.37-.33.82.82,0,0,1,.57.14,1.86,1.86,0,0,1,.72.83v-.35l.39.22V50a2.22,2.22,0,0,1-.12.9.43.43,0,0,1-.37.23,1.16,1.16,0,0,1-.63-.2,2.18,2.18,0,0,1-.71-.64A1.42,1.42,0,0,1,164.5,49.48Zm.35-1.55a2,2,0,0,0,.19.95,1.28,1.28,0,0,0,.48.54.41.41,0,0,0,.48,0q.2-.15.2-.71a2,2,0,0,0-.2-.92,1.3,1.3,0,0,0-.49-.55.4.4,0,0,0-.48,0A.87.87,0,0,0,164.85,47.93Z"/><path class="cls-8" d="M168.3,51.42v-.56l.48.27v.56Z"/><path class="cls-8" d="M170.31,51.12q0-.81.38-1a.86.86,0,0,1,.78.12,2.23,2.23,0,0,1,.83.87,2.56,2.56,0,0,1,.32,1.27,1.64,1.64,0,0,1-.14.8.51.51,0,0,1-.42.26,1.06,1.06,0,0,1-.6-.17,2.22,2.22,0,0,1-.84-.87A2.64,2.64,0,0,1,170.31,51.12Zm.43.25a2,2,0,0,0,.21,1,1.37,1.37,0,0,0,.52.58.44.44,0,0,0,.52,0c.14-.11.21-.35.21-.73a2,2,0,0,0-.21-.94,1.37,1.37,0,0,0-.52-.58.45.45,0,0,0-.52,0Q170.74,50.81,170.74,51.37Z"/><path class="cls-8" d="M174.07,54.74V51.83l.38.22v.41q.27-.32.79,0a1.73,1.73,0,0,1,.41.33,1.51,1.51,0,0,1,.28.41,1.73,1.73,0,0,1,.13.44,3.83,3.83,0,0,1,0,.49v1.79l-.42-.24V53.88a1.89,1.89,0,0,0,0-.48,1,1,0,0,0-.47-.59.5.5,0,0,0-.46-.07c-.13.06-.19.27-.19.65V55Z"/><path class="cls-8" d="M177.67,56.8v-4l.42.24v4Z"/><path class="cls-8" d="M179.69,54.52V54l.42.24v.57Zm0,3.45V55.06l.42.24v2.91Z"/><path class="cls-8" d="M181.7,59.12V56.22l.38.22v.41q.27-.32.79,0a1.78,1.78,0,0,1,.41.33,1.57,1.57,0,0,1,.28.41,1.74,1.74,0,0,1,.13.44,3.61,3.61,0,0,1,0,.49v1.79l-.42-.24V58.27a1.89,1.89,0,0,0,0-.48,1,1,0,0,0-.47-.59.5.5,0,0,0-.46-.07c-.13.06-.2.27-.2.65v1.59Z"/><path class="cls-8" d="M187,61.23l.43.31a.6.6,0,0,1-.38.47.92.92,0,0,1-.71-.16,2.26,2.26,0,0,1-.86-.89,2.62,2.62,0,0,1-.32-1.29q0-.73.32-1a.75.75,0,0,1,.83.07,2.14,2.14,0,0,1,.81.86,2.66,2.66,0,0,1,.31,1.3s0,.07,0,.13L185.6,60a2,2,0,0,0,.23.87,1.38,1.38,0,0,0,.52.55.51.51,0,0,0,.39.08A.44.44,0,0,0,187,61.23Zm-1.38-1.59,1.38.79a1.69,1.69,0,0,0-.16-.64,1.33,1.33,0,0,0-.52-.58.47.47,0,0,0-.49-.05A.56.56,0,0,0,185.62,59.65Z"/><path class="cls-9" d="M118.24,232.6c1.32,1,1,2.45-.5,3.4-17.47,10.92-15.51,36.66-33,47.58a5.11,5.11,0,0,1-5.27-.25L55.25,264.81c-1.32-1-1-2.45.5-3.4,17.47-10.91,15.51-36.66,33-47.58a5.11,5.11,0,0,1,5.27.25Z"/><path class="cls-3" d="M95.63,220.4c-2.81,1.91-6.61,2.29-9.19.33-10.23,10.7-11.83,28-22.07,38.68,2.55,1.94,2.89,5.49.08,7.4L77.85,277c2.81-1.91,6.61-2.29,9.19-.32,10.24-10.69,11.84-28,22.07-38.68-2.55-1.95-2.89-5.49-.09-7.41h0l-13.4-10.23Zm-1.27,34.12c-2.09,5.06-7.41,6.38-11.64,3.16S77.05,248,79.14,242.9s7.41-6.38,11.64-3.16S96.44,249.46,94.36,254.52Z"/><path class="cls-10" d="M99.44,138.82c0,1,.81,1.37,1.8,1,11.58-4.36,23.16,6,34.74,1.6a3.07,3.07,0,0,0,1.8-2.6V120.49c0-1-.81-1.37-1.8-1-11.58,4.36-23.16-6-34.74-1.6a3.07,3.07,0,0,0-1.8,2.6Z"/><path class="cls-3" d="M101.84,123.58V133.7h0a2.66,2.66,0,0,1,3.5,2.74c8.84-1,17.68,4.56,26.52,3.56a4.82,4.82,0,0,1,3.5-4.27V125.61a2.65,2.65,0,0,1-3.5-2.74c-8.84,1-17.68-4.55-26.52-3.56a4.81,4.81,0,0,1-3.5,4.27Zm11,4.73a4.37,4.37,0,0,1,5.75-4.4,7.83,7.83,0,0,1,5.75,7.1,4.37,4.37,0,0,1-5.75,4.4A7.83,7.83,0,0,1,112.86,128.31Z"/></g></g></svg>