<svg xmlns="http://www.w3.org/2000/svg" xmlns:xlink="http://www.w3.org/1999/xlink" viewBox="0 0 468.49 369.46"><defs><style>.cls-1{fill:#cce7ff;}.cls-2{fill:#7db8ea;}.cls-3{fill:#eef9ff;}.cls-4{fill:#254356;}.cls-5{fill:#a4d2f4;}.cls-6{fill:#bebebe;}.cls-7{fill:url(#Безымянный_градиент_2);}.cls-8{fill:#f5f6fa;}.cls-9{fill:url(#Безымянный_градиент_2-2);}.cls-10{fill:url(#Безымянный_градиент_2-3);}.cls-11{fill:url(#Безымянный_градиент_2-4);}.cls-12,.cls-13{fill:none;stroke-miterlimit:10;}.cls-12{stroke:#254356;}.cls-13{stroke:#7db8ea;}.cls-14{isolation:isolate;}</style><linearGradient id="Безымянный_градиент_2" x1="-701.58" y1="692.59" x2="-701.58" y2="691.59" gradientTransform="matrix(34.49, -14.33, 0, -40, 24542.71, 17726.81)" gradientUnits="userSpaceOnUse"><stop offset="0" stop-color="#0053ff"/><stop offset="1" stop-color="#00b4ff"/></linearGradient><linearGradient id="Безымянный_градиент_2-2" x1="-707.12" y1="694.3" x2="-707.12" y2="693.3" xlink:href="#Безымянный_градиент_2"/><linearGradient id="Безымянный_градиент_2-3" x1="-708.95" y1="687.87" x2="-708.95" y2="687.08" gradientTransform="matrix(22.35, -23.01, -37.89, -22.72, 41955.44, -388.35)" xlink:href="#Безымянный_градиент_2"/><linearGradient id="Безымянный_градиент_2-4" x1="-707.32" y1="684.62" x2="-707.32" y2="684.16" gradientTransform="matrix(22.35, -23.01, -37.89, -22.72, 41955.44, -388.35)" xlink:href="#Безымянный_градиент_2"/></defs><title>d3</title><g id="Слой_2" data-name="Слой 2"><g id="OBJECTS"><path class="cls-1" d="M277.25,180.45l112.53-64.59L390,27.11c0-2.39-3.45-3.65-6.18-4.28a7.91,7.91,0,0,0-5.7.87L282,78.78a8.94,8.94,0,0,0-4.5,7.74Z"/><path class="cls-2" d="M280.25,179l109.29-62.73.23-89.16a3.35,3.35,0,0,0-5-2.91L284,81.9A7.07,7.07,0,0,0,280.48,88Z"/><polygon class="cls-3" points="385.26 29.38 285.28 86.77 285.07 170.71 385.26 113.19 385.26 29.38"/><path class="cls-2" d="M468.29,163.44c-.14-.1-87.37-42.56-87.37-42.56L277.62,180.46l81.33,47a8.94,8.94,0,0,0,8.95,0s84.15-48.65,98.52-57a4.16,4.16,0,0,0,2.07-3.6Z"/><path class="cls-1" d="M280.38,178.59l109.16-63,77.2,44.62a3.35,3.35,0,0,1,0,5.8l-100.5,58.08a7.07,7.07,0,0,1-7.07,0Z"/><path class="cls-4" d="M310.59,180.52l-5.43,3.12-5.49-3.11,5.43-3.12Z"/><path class="cls-4" d="M318.61,175.92,313.18,179l-5.49-3.11,5.44-3.12Z"/><path class="cls-4" d="M326.63,171.31l-5.44,3.12-5.49-3.11,5.44-3.12Z"/><path class="cls-4" d="M334.66,166.7l-5.44,3.12-5.49-3.11,5.44-3.12Z"/><path class="cls-4" d="M342.68,162.1l-5.44,3.12-5.49-3.11,5.44-3.12Z"/><path class="cls-4" d="M350.7,157.49l-5.44,3.12-5.49-3.11,5.44-3.12Z"/><path class="cls-4" d="M358.73,152.88,353.29,156l-5.49-3.11,5.44-3.12Z"/><path class="cls-4" d="M366.75,148.28l-5.44,3.12-5.49-3.11,5.44-3.12Z"/><path class="cls-4" d="M374.77,143.67l-5.44,3.12-5.49-3.11,5.44-3.12Z"/><path class="cls-4" d="M382.79,139.06l-5.44,3.12-5.49-3.11L377.3,136Z"/><path class="cls-4" d="M390.82,134.46l-5.43,3.12-5.49-3.11,5.43-3.12Z"/><path class="cls-4" d="M398.84,129.85,393.4,133l-5.49-3.11,5.43-3.12Z"/><path class="cls-4" d="M318.3,184.88,312.87,188l-5.5-3.11,5.43-3.12Z"/><path class="cls-4" d="M326.32,180.28l-5.43,3.12-5.5-3.11,5.43-3.12Z"/><path class="cls-4" d="M334.35,175.67l-5.44,3.12-5.5-3.11,5.44-3.12Z"/><path class="cls-4" d="M342.37,171.06l-5.44,3.12-5.5-3.11,5.44-3.12Z"/><path class="cls-4" d="M350.39,166.46,345,169.58l-5.5-3.11,5.44-3.12Z"/><path class="cls-4" d="M358.42,161.85,353,165l-5.5-3.11,5.44-3.12Z"/><path class="cls-4" d="M366.44,157.24,361,160.36l-5.5-3.11,5.44-3.12Z"/><path class="cls-4" d="M374.46,152.64,369,155.76l-5.5-3.11,5.44-3.12Z"/><path class="cls-4" d="M382.48,148,377,151.15l-5.5-3.11,5.44-3.12Z"/><path class="cls-4" d="M390.51,143.42l-5.44,3.12-5.5-3.11,5.44-3.12Z"/><path class="cls-4" d="M398.53,138.82l-5.44,3.12-5.5-3.11,5.44-3.12Z"/><path class="cls-4" d="M406.55,134.21l-9.11,5.23-5.5-3.11,9.11-5.23Z"/><path class="cls-4" d="M329.61,187.18l-9,5.18-5.5-3.11,9-5.18Z"/><path class="cls-4" d="M334,184.64l-5.43,3.12-5.5-3.11,5.43-3.12Z"/><path class="cls-4" d="M342.06,180l-5.44,3.12-5.5-3.11,5.44-3.12Z"/><path class="cls-4" d="M350.08,175.42l-5.44,3.12-5.5-3.11,5.44-3.12Z"/><path class="cls-4" d="M358.11,170.82l-5.44,3.12-5.5-3.11,5.44-3.12Z"/><path class="cls-4" d="M366.13,166.21l-5.44,3.12-5.5-3.11,5.44-3.12Z"/><path class="cls-4" d="M374.15,161.6l-5.44,3.12-5.5-3.11,5.44-3.12Z"/><path class="cls-4" d="M382.17,157l-5.44,3.12-5.5-3.11,5.44-3.12Z"/><path class="cls-4" d="M390.2,152.39l-5.44,3.12-5.5-3.11,5.44-3.12Z"/><path class="cls-4" d="M398.22,147.78l-5.44,3.12-5.5-3.11,5.44-3.12Z"/><path class="cls-4" d="M406.24,143.18l-5.44,3.12-5.5-3.11,5.43-3.12Z"/><path class="cls-4" d="M414.26,138.57l-5.43,3.12-5.5-3.11,5.43-3.12Z"/><path class="cls-4" d="M333.73,193.6l-5.43,3.12-5.5-3.11,5.43-3.12Z"/><path class="cls-4" d="M341.75,189l-5.44,3.12-5.5-3.11,5.44-3.12Z"/><path class="cls-4" d="M349.77,184.39l-5.44,3.12-5.5-3.11,5.44-3.12Z"/><path class="cls-4" d="M357.8,179.78l-5.44,3.12-5.5-3.11,5.44-3.12Z"/><path class="cls-4" d="M365.82,175.18l-5.44,3.12-5.5-3.11,5.44-3.12Z"/><path class="cls-4" d="M373.84,170.57l-5.44,3.12-5.5-3.11,5.44-3.12Z"/><path class="cls-4" d="M381.86,166l-5.44,3.12-5.5-3.11,5.44-3.12Z"/><path class="cls-4" d="M389.89,161.36l-5.44,3.12-5.5-3.11,5.44-3.12Z"/><path class="cls-4" d="M397.91,156.75l-5.44,3.12-5.5-3.11,5.44-3.12Z"/><path class="cls-4" d="M405.93,152.14l-5.44,3.12-5.5-3.11,5.44-3.12Z"/><path class="cls-4" d="M417.42,145.55l-8.9,5.11-5.5-3.11,8.9-5.11Z"/><path class="cls-4" d="M422,142.93,416.54,146l-5.5-3.11,5.43-3.12Z"/><path class="cls-4" d="M342.51,198.57l-5.43,3.12-5.49-3.11,5.43-3.12Z"/><path class="cls-4" d="M350.53,194l-5.44,3.12L339.6,194l5.43-3.12Z"/><path class="cls-4" d="M358.55,189.35l-5.44,3.12-5.49-3.11,5.44-3.12Z"/><path class="cls-4" d="M406.69,161.71l-45.55,26.16-5.49-3.11,45.55-26.16Z"/><path class="cls-4" d="M414.71,157.1l-5.44,3.12-5.49-3.11,5.44-3.12Z"/><path class="cls-4" d="M422.73,152.5l-5.44,3.12-5.49-3.11,5.44-3.12Z"/><path class="cls-4" d="M430.76,147.89,425.32,151l-5.49-3.11,5.43-3.12Z"/><polygon class="cls-5" points="369.47 190.1 406.93 168.48 428.33 181.67 390.89 203.3 369.47 190.1"/><path class="cls-2" d="M278.24,236.58c-.14-.1-156,30.55-156,30.55v7.37l46.9,26.41a8.94,8.94,0,0,0,8.95,0s84-48.89,98.35-57.25a4.16,4.16,0,0,0,2.06-3.61Z"/><path class="cls-1" d="M122.19,267.13,230.62,203.9l46.05,29.49a3.35,3.35,0,0,1,0,5.8L176.36,297.55a7.07,7.07,0,0,1-7.07,0Z"/><path class="cls-4" d="M149.25,266.85,143.84,270c-2.29-1.45-3.45-2.18-5.81-3.7l5.43-3.12C145.81,264.67,147,265.4,149.25,266.85Z"/><path class="cls-4" d="M157.24,262.21l-5.41,3.14c-2.28-1.44-3.44-2.17-5.77-3.67l5.44-3.12Z"/><path class="cls-4" d="M165.22,257.57l-5.41,3.14-5.74-3.64,5.44-3.12Z"/><path class="cls-4" d="M173.21,252.93l-5.41,3.14-5.7-3.61,5.44-3.12Z"/><path class="cls-4" d="M181.19,248.3l-5.41,3.14-5.66-3.58,5.44-3.12Z"/><path class="cls-4" d="M189.18,243.66l-5.41,3.14-5.63-3.54,5.44-3.12Z"/><path class="cls-4" d="M197.17,239l-5.41,3.14-5.59-3.51,5.44-3.12Z"/><path class="cls-4" d="M205.15,234.39l-5.41,3.14L194.19,234l5.44-3.12Z"/><path class="cls-4" d="M213.14,229.75l-5.41,3.14-5.51-3.45,5.44-3.12Z"/><path class="cls-4" d="M221.12,225.11l-5.41,3.14-5.48-3.42,5.44-3.12C217.86,223.06,218.95,223.74,221.12,225.11Z"/><path class="cls-4" d="M229.11,220.48l-5.41,3.14c-2.17-1.37-3.26-2-5.44-3.39l5.43-3.12C225.86,218.44,226.94,219.11,229.11,220.48Z"/><path class="cls-4" d="M237.09,215.84,231.68,219c-2.16-1.36-3.24-2-5.4-3.36l5.43-3.12C233.87,213.82,234.94,214.49,237.09,215.84Z"/><path class="cls-4" d="M157.15,271.8l-5.39,3.15-5.62-3.51,5.4-3.15Z"/><path class="cls-4" d="M165.11,267.15l-5.39,3.15-5.6-3.5,5.4-3.15Z"/><path class="cls-4" d="M173.06,262.5l-5.39,3.15-5.58-3.5,5.4-3.15Z"/><path class="cls-4" d="M181,257.85,175.63,261l-5.56-3.49,5.4-3.15Z"/><path class="cls-4" d="M189,253.2l-5.39,3.15L178,252.86l5.4-3.15Z"/><path class="cls-4" d="M196.93,248.54l-5.39,3.15L186,248.22l5.4-3.15Z"/><path class="cls-4" d="M204.89,243.89,199.5,247,194,243.57l5.4-3.15Z"/><path class="cls-4" d="M212.85,239.24l-5.39,3.15L202,238.93l5.4-3.15Z"/><path class="cls-4" d="M220.8,234.59l-5.39,3.15-5.47-3.46,5.4-3.15Z"/><path class="cls-4" d="M228.76,229.94l-5.39,3.15-5.45-3.45,5.4-3.15Z"/><path class="cls-4" d="M236.72,225.29l-5.39,3.15L225.89,225l5.4-3.15Z"/><path class="cls-4" d="M244.67,220.64l-9,5.28-5.42-3.44,9.06-5.27Z"/><path class="cls-4" d="M168.41,274.51l-8.95,5.22-5.46-3.4,8.95-5.23Z"/><path class="cls-4" d="M172.8,271.95l-5.39,3.14-5.46-3.4,5.39-3.15Z"/><path class="cls-4" d="M180.75,267.31l-5.39,3.14L169.9,267l5.39-3.15Z"/><path class="cls-4" d="M188.7,262.66l-5.39,3.14-5.46-3.42,5.39-3.15Z"/><path class="cls-4" d="M196.66,258l-5.39,3.14-5.46-3.43,5.39-3.15Z"/><path class="cls-4" d="M204.61,253.38l-5.39,3.14-5.46-3.44,5.39-3.15Z"/><path class="cls-4" d="M212.56,248.74l-5.39,3.14-5.46-3.44,5.39-3.15Z"/><path class="cls-4" d="M220.51,244.1l-5.39,3.14-5.46-3.45,5.39-3.15Z"/><path class="cls-4" d="M228.47,239.46l-5.39,3.14-5.46-3.46L223,236Z"/><path class="cls-4" d="M236.42,234.82,231,238l-5.46-3.47,5.39-3.15Z"/><path class="cls-4" d="M244.37,230.17,239,233.32l-5.46-3.48,5.39-3.15Z"/><path class="cls-4" d="M252.32,225.53l-5.39,3.14-5.46-3.49,5.39-3.15Z"/><path class="cls-4" d="M172.39,281.31l-5.4,3.13-5.35-3.35,5.39-3.14Z"/><path class="cls-4" d="M180.37,276.69l-5.4,3.13-5.37-3.37,5.39-3.14Z"/><path class="cls-4" d="M188.34,272.07l-5.4,3.13-5.39-3.38,5.39-3.14Z"/><path class="cls-4" d="M196.31,267.44l-5.4,3.13-5.4-3.39L190.9,264Z"/><path class="cls-4" d="M204.28,262.82l-5.4,3.13-5.42-3.41,5.39-3.14Z"/><path class="cls-4" d="M212.25,258.2l-5.4,3.13-5.44-3.42,5.39-3.14Z"/><path class="cls-4" d="M220.23,253.57l-5.4,3.13-5.45-3.43,5.39-3.14Z"/><path class="cls-4" d="M228.2,248.95l-5.4,3.13-5.47-3.45,5.39-3.14Z"/><path class="cls-4" d="M236.17,244.33l-5.4,3.13L225.28,244l5.39-3.14Z"/><path class="cls-4" d="M244.14,239.7l-5.4,3.13-5.5-3.47,5.39-3.14Z"/><path class="cls-4" d="M255.56,233.08l-8.84,5.13-5.52-3.49,8.83-5.14Z"/><path class="cls-4" d="M260.09,230.46l-5.4,3.13-5.54-3.5,5.39-3.14Z"/><path class="cls-4" d="M180.88,286.72l-5.43,3.12c-2.11-1.37-3.16-2-5.28-3.39l5.41-3.13C177.7,284.67,178.76,285.35,180.88,286.72Z"/><path class="cls-4" d="M188.9,282.11l-5.44,3.12c-2.12-1.37-3.18-2-5.31-3.4l5.41-3.13C185.7,280.06,186.77,280.74,188.9,282.11Z"/><path class="cls-4" d="M196.92,277.51l-5.44,3.12-5.35-3.41,5.41-3.13Z"/><path class="cls-4" d="M245.06,249.86,199.51,276l-5.38-3.42,45.35-26.2C241.7,247.79,242.81,248.48,245.06,249.86Z"/><path class="cls-4" d="M253.08,245.26l-5.44,3.12c-2.25-1.38-3.37-2.08-5.59-3.47l5.41-3.13C249.7,243.18,250.82,243.87,253.08,245.26Z"/><path class="cls-4" d="M261.11,240.65l-5.43,3.12c-2.27-1.39-3.39-2.08-5.63-3.48l5.41-3.13C257.7,238.57,258.83,239.26,261.11,240.65Z"/><path class="cls-4" d="M269.13,236l-5.43,3.12c-2.28-1.39-3.42-2.09-5.66-3.48l5.41-3.13C265.7,234,266.83,234.65,269.13,236Z"/><path class="cls-2" d="M186.24,213.2c-.08-.05-24.18-11.8-47.61-23.2-11.65,7.52-23.85,14.21-36.08,20.84q-5.56,3.64-11.13,7.27l44.11,25.5a9.35,9.35,0,0,0,9.35,0s24.37-14.34,39.39-23a4.35,4.35,0,0,0,2.17-3.77Z"/><path class="cls-5" d="M184.61,209.86,144,186.41c-13.27,9-27.38,16.78-41.53,24.45l-8.14,5.33,41.39,23.92a7.39,7.39,0,0,0,7.39,0l41.46-24.19A3.5,3.5,0,0,0,184.61,209.86Z"/><path class="cls-1" d="M63.15,247.47l6.91,3.47L230.77,8c0-2.45-2.43-5.31-4.9-6.58a12.82,12.82,0,0,0-12.2.36l-143.58,82a13.12,13.12,0,0,0-6.6,11.35Z"/><path class="cls-1" d="M70.05,250.94l160.38-92.07L230.77,8a4.91,4.91,0,0,0-7.35-4.28L75.61,88.35a10.37,10.37,0,0,0-5.22,9Z"/><path class="cls-2" d="M230.48,134.89,230.77,8a4.91,4.91,0,0,0-7.35-4.28L75.61,88.35a10.37,10.37,0,0,0-5.22,9l-.3,131.36Z"/><polygon class="cls-3" points="224.17 11.27 77.44 95.5 77.13 213.69 224.17 128.02 224.17 11.27"/><path class="cls-2" d="M136.09,313.73c-.14-.1-87.37-42.56-87.37-42.56l-44,25.41L0,301.87v3.47a3.94,3.94,0,0,0,2,3.4l72.18,41.72a8.94,8.94,0,0,0,8.95,0s36.75-21.36,51.11-29.68a4.16,4.16,0,0,0,2.07-3.6Z"/><path class="cls-1" d="M2.21,297.76l51.91-30a6.41,6.41,0,0,1,6.42,0l74,42.76a3.35,3.35,0,0,1,0,5.8L81.44,347.12a7.07,7.07,0,0,1-7.07,0L2.21,305.42A4.43,4.43,0,0,1,2.21,297.76Z"/><polygon class="cls-4" points="4.53 303.53 61.18 271.11 127.63 309.34 70.99 341.76 4.53 303.53"/><polygon class="cls-3" points="9.35 303.54 61.18 273.87 122.81 309.33 70.99 339 9.35 303.54"/><ellipse class="cls-2" cx="105.01" cy="327.82" rx="4" ry="3.08"/><path class="cls-2" d="M264.69,347.13c-.14-.1-64.57-29.36-64.57-29.36l-17.59,9.81-4.72,5.29v3.47a3.94,3.94,0,0,0,2,3.4l49.38,28.52a8.94,8.94,0,0,0,8.95,0s10.35-5.76,24.71-14.08a4.16,4.16,0,0,0,2.07-3.6Z"/><path class="cls-1" d="M180,328.76l25.51-14.38a6.41,6.41,0,0,1,6.42,0l51.19,29.56a3.35,3.35,0,0,1,0,5.8l-26.69,15.19a7.07,7.07,0,0,1-7.07,0L180,336.42A4.43,4.43,0,0,1,180,328.76Z"/><polygon class="cls-4" points="181.13 334.53 213.39 316.77 256.89 341.97 224.79 359.56 181.13 334.53"/><polygon class="cls-3" points="183.57 334.55 213.37 318.15 254.45 341.94 224.8 358.19 183.57 334.55"/><ellipse class="cls-2" cx="196.15" cy="323.37" rx="0.99" ry="0.77"/><ellipse class="cls-6" cx="246.54" cy="353.02" rx="4.41" ry="3.4"/><ellipse class="cls-2" cx="246.54" cy="353.02" rx="4.41" ry="3.4"/><ellipse class="cls-5" cx="246.54" cy="353.02" rx="3.37" ry="2.6"/><rect class="cls-2" x="198.32" y="320.73" width="3.86" height="0.73" rx="0.3" ry="0.3" transform="translate(-130.52 137.27) rotate(-28.99)"/><rect class="cls-2" x="190.1" y="325.28" width="3.86" height="0.73" rx="0.3" ry="0.3" transform="translate(-133.76 133.86) rotate(-28.99)"/><path class="cls-2" d="M301.73,216.47c-.08-.06-36.42-16.56-36.42-16.56l-7.58,4-2.66,3v2a2.22,2.22,0,0,0,1.11,1.92L284,226.86a5,5,0,0,0,5,0s3.49-1.72,11.6-6.41a2.35,2.35,0,0,0,1.17-2Z"/><path class="cls-5" d="M256.32,205.25l12-6.58a3.62,3.62,0,0,1,3.62,0l28.87,16.67a1.89,1.89,0,0,1,0,3.27l-12.71,7a4,4,0,0,1-4,0l-27.84-16.08A2.5,2.5,0,0,1,256.32,205.25Z"/><path class="cls-1" d="M256.32,203.76l12-6.58a3.61,3.61,0,0,1,1.52-.47c.72-.06,6-.6,14.21,3.61s16.76,13.54,16.76,13.54c1,1.2,1.26,2.54,0,3.27l-12.71,7a4,4,0,0,1-4,0s-7.73-7.32-13-10.63-14.85-5.45-14.85-5.45A2.5,2.5,0,0,1,256.32,203.76Z"/><ellipse class="cls-2" cx="290.76" cy="215.62" rx="1.49" ry="1.93" transform="translate(43.89 480.37) rotate(-83.56)"/><g id="Page-1"><g id="sec-copy-2"><g id="eerr_1" data-name="eerr 1"><path id="Shape" class="cls-7" d="M357.38,89.8a3.06,3.06,0,0,1,2.36,3.27,8,8,0,0,1-2.36,5.23l-12.55,12.8-12.35,12.6c-3.2,3.26-7.22,2.57-7.22-1.24V92.33c0-3.81,4-7.85,7.22-7.25l12.35,2.34Z"/><path id="Shape-2" data-name="Shape" class="cls-8" d="M347,108.5a47.86,47.86,0,0,0-5.34-8.59,1.77,1.77,0,0,0,.41-2c-.42-.47-1.28-.31-1.94.36a22.69,22.69,0,0,0-5.5-4.38.73.73,0,0,0-.82.2l-2.64,2.49a1.19,1.19,0,0,0-.36.78.45.45,0,0,0,.36.49,17.41,17.41,0,0,1,6.09,3.15.18.18,0,0,1,0,.17.4.4,0,0,1-.11.21l-3.87,4.11a6,6,0,0,0,.58,1.36,3.08,3.08,0,0,0,1,.86l4.18-4.82a.28.28,0,0,1,.32-.08,53.24,53.24,0,0,1,6.32,6.88c.18.27.6.24,1-.08A.93.93,0,0,0,347,108.5Z"/><path id="Shape-3" data-name="Shape" class="cls-8" d="M325.25,108.9s0,2.5,2,1.66c2.54-1.05,5.07-4.11,5.07-4.11a2.58,2.58,0,0,0,.51,1.29,3.4,3.4,0,0,0,1,1.08l-6.09,7a10.21,10.21,0,0,0-2.54,6.05Z"/></g></g></g><g id="Page-1-2" data-name="Page-1"><g id="sec-copy-2-2" data-name="sec-copy-2"><g id="eerr_1-2" data-name="eerr 1"><path id="Shape-4" data-name="Shape" class="cls-9" d="M166.38,100.8a3.06,3.06,0,0,1,2.36,3.27,8,8,0,0,1-2.36,5.23l-12.55,12.8-12.35,12.6c-3.2,3.26-7.22,2.57-7.22-1.24V103.33c0-3.81,4-7.85,7.22-7.25l12.35,2.34Z"/><path id="Shape-5" data-name="Shape" class="cls-8" d="M156,119.5a47.86,47.86,0,0,0-5.34-8.59,1.77,1.77,0,0,0,.41-2c-.42-.47-1.28-.32-1.94.36a22.69,22.69,0,0,0-5.5-4.38.73.73,0,0,0-.82.2l-2.64,2.49a1.19,1.19,0,0,0-.36.78.45.45,0,0,0,.36.49,17.41,17.41,0,0,1,6.09,3.15.18.18,0,0,1,0,.17.4.4,0,0,1-.11.21l-3.87,4.11a6,6,0,0,0,.58,1.36,3.08,3.08,0,0,0,1,.86l4.18-4.82a.28.28,0,0,1,.32-.08,53.24,53.24,0,0,1,6.32,6.88c.18.27.6.24,1-.08A.93.93,0,0,0,156,119.5Z"/><path id="Shape-6" data-name="Shape" class="cls-8" d="M134.25,119.9s0,2.5,2,1.66c2.54-1.05,5.07-4.11,5.07-4.11a2.58,2.58,0,0,0,.51,1.29,3.4,3.4,0,0,0,1,1.08l-6.09,7a10.21,10.21,0,0,0-2.54,6.05Z"/></g></g></g><g id="Page-1-3" data-name="Page-1"><g id="sec-copy-2-3" data-name="sec-copy-2"><g id="eerr_1-3" data-name="eerr 1"><path id="Shape-7" data-name="Shape" class="cls-10" d="M71.87,295.56a5.94,5.94,0,0,1,4.38.66,3.6,3.6,0,0,1,2,3.14l-.75,10-.73,9.83c-.19,2.54-4,3.6-6.85,1.9L47.41,307.59c-2.84-1.7-2.55-4.88.52-5.69l11.87-3.15Z"/><path id="Shape-8" data-name="Shape" class="cls-8" d="M77.28,307.45a98.44,98.44,0,0,0-10.78-2,1.29,1.29,0,0,0-1.17-1c-.69-.07-1.28.29-1.33.82a49.31,49.31,0,0,0-7.78-.09.53.53,0,0,0-.53.37l-.31,2a.53.53,0,0,0,.29.47.88.88,0,0,0,.66.1,34.28,34.28,0,0,1,7.34-.66.28.28,0,0,1,.16.06.16.16,0,0,1,.07.13l-.11,3.15a11,11,0,0,0,1.49.41,6.7,6.7,0,0,0,1.47,0l-.17-3.58a.2.2,0,0,1,.2-.14q5.16.24,10.31.93a.58.58,0,0,0,.72-.36C77.87,307.77,77.63,307.51,77.28,307.45Z"/><path id="Shape-9" data-name="Shape" class="cls-8" d="M59.77,315s1.86,1.12,2.9.05a5.06,5.06,0,0,0,1.1-3.56,4.59,4.59,0,0,0,1.38.4,7.42,7.42,0,0,0,1.64.14l.25,5.21a4.82,4.82,0,0,0,2.44,3.57Z"/></g></g></g><g id="Page-1-4" data-name="Page-1"><g id="sec-copy-2-4" data-name="sec-copy-2"><g id="eerr_1-4" data-name="eerr 1"><path id="Shape-10" data-name="Shape" class="cls-11" d="M223.17,332.28a3.45,3.45,0,0,1,2.55.38,2.1,2.1,0,0,1,1.14,1.83l-.43,5.81L226,346c-.11,1.48-2.33,2.09-4,1.1l-13.07-7.84c-1.65-1-1.49-2.84.3-3.31l6.91-1.83Z"/><path id="Shape-11" data-name="Shape" class="cls-8" d="M226.32,339.2A57.26,57.26,0,0,0,220,338a.75.75,0,0,0-.68-.61c-.4,0-.75.17-.77.48a28.68,28.68,0,0,0-4.53-.05.31.31,0,0,0-.31.21l-.18,1.17a.31.31,0,0,0,.17.27.51.51,0,0,0,.38.06,19.94,19.94,0,0,1,4.27-.38.16.16,0,0,1,.1,0,.09.09,0,0,1,0,.08l-.06,1.83a6.4,6.4,0,0,0,.87.24,3.91,3.91,0,0,0,.86,0l-.1-2.08a.12.12,0,0,1,.12-.08q3,.14,6,.54a.34.34,0,0,0,.42-.21C226.66,339.39,226.52,339.23,226.32,339.2Z"/><path id="Shape-12" data-name="Shape" class="cls-8" d="M216.13,343.59s1.08.65,1.69,0a3,3,0,0,0,.64-2.07,2.67,2.67,0,0,0,.8.24,4.32,4.32,0,0,0,1,.08l.15,3a2.81,2.81,0,0,0,1.42,2.08Z"/></g></g></g></g><g id="Слой_5" data-name="Слой 5"><polygon class="cls-2" points="258.23 299.7 322.91 337.23 409.15 286.93 405.95 279.74 345.27 249.4 255.04 292.52 258.23 299.7"/><polygon class="cls-4" points="255.04 292.52 319.72 330.05 405.95 279.74 342.07 242.21 255.04 292.52"/><polyline class="cls-12" points="348.86 321.66 346.47 315.27 332.89 307.29"/><polygon class="cls-5" points="253.44 287.73 318.12 325.25 404.36 274.95 401.16 267.76 340.48 237.42 250.25 280.54 253.44 287.73"/><polygon class="cls-1" points="250.25 280.54 314.93 318.07 401.16 267.76 337.28 230.23 250.25 280.54"/><polyline class="cls-13" points="277 265.77 341.68 302.5 344.87 309.68"/><g id="_Группа_" data-name="&lt;Группа&gt;"><g id="_Группа_2" data-name="&lt;Группа&gt;"><g id="_Группа_3" data-name="&lt;Группа&gt;" class="cls-14"><path id="_Контур_" data-name="&lt;Контур&gt;" class="cls-2" d="M418.1,347.35c-5.56,3.23-14.6,3.23-20.19,0l-25.49-14.72c-2.82-1.63-4.22-3.76-4.22-5.89l0,6.11c0,2.13,1.4,4.26,4.22,5.89l25.49,14.72c5.6,3.23,14.64,3.23,20.19,0,2.76-1.6,4.14-3.7,4.15-5.81l0-6.11C422.24,343.64,420.86,345.74,418.1,347.35Z"/><g id="_Группа_4" data-name="&lt;Группа&gt;"><path id="_Контур_2" data-name="&lt;Контур&gt;" class="cls-1" d="M418,335.65c5.6,3.23,5.62,8.47.07,11.7s-14.6,3.23-20.19,0l-25.49-14.72c-5.59-3.23-5.62-8.47-.07-11.7s14.6-3.23,20.19,0Z"/></g></g></g><path id="_Контур_3" data-name="&lt;Контур&gt;" class="cls-1" d="M415.69,336.27l-11.55-6.67-1.58.93-1.24-.72,1.58-.93-.82-.47-1.58.93-1.24-.72,1.58-.93-.82-.47-1.58.93-1.24-.72,1.58-.93-7.31-4.22c-4.65-2.68-12.16-2.68-16.78,0s-4.59,7,.05,9.72L399,346c4.65,2.68,12.16,2.68,16.78,0S420.34,339,415.69,336.27Z"/><g id="_Группа_5" data-name="&lt;Группа&gt;"><g id="_Группа_6" data-name="&lt;Группа&gt;"><path id="_Контур_4" data-name="&lt;Контур&gt;" class="cls-5" d="M414.65,336.89c3.95,2.28,4,6,0,8.26a15.71,15.71,0,0,1-14.25,0c-3.95-2.28-4-6,0-8.26A15.71,15.71,0,0,1,414.65,336.89Z"/></g><g id="_Группа_7" data-name="&lt;Группа&gt;"><g id="_Группа_8" data-name="&lt;Группа&gt;" class="cls-14"><g id="_Группа_9" data-name="&lt;Группа&gt;"><path id="_Контур_5" data-name="&lt;Контур&gt;" class="cls-4" d="M413.67,340a1.35,1.35,0,0,1,0,2.55,4.85,4.85,0,0,1-4.4,0,1.35,1.35,0,0,1,0-2.55A4.85,4.85,0,0,1,413.67,340Z"/></g></g></g><g id="_Группа_10" data-name="&lt;Группа&gt;"><g id="_Группа_11" data-name="&lt;Группа&gt;" class="cls-14"><g id="_Группа_12" data-name="&lt;Группа&gt;"><path id="_Контур_6" data-name="&lt;Контур&gt;" class="cls-4" d="M405.82,340a1.35,1.35,0,0,1,0,2.55,4.85,4.85,0,0,1-4.4,0,1.35,1.35,0,0,1,0-2.55A4.85,4.85,0,0,1,405.82,340Z"/></g></g></g></g><g id="_Группа_13" data-name="&lt;Группа&gt;"><g id="_Группа_14" data-name="&lt;Группа&gt;" class="cls-14"><g id="_Группа_15" data-name="&lt;Группа&gt;"><polygon id="_Контур_7" data-name="&lt;Контур&gt;" class="cls-4" points="388.71 325.67 385.67 327.44 388.73 329.2 385.25 331.22 382.19 329.46 379.15 331.22 375.65 329.2 378.69 327.44 375.63 325.67 379.11 323.65 382.17 325.42 385.21 323.65 388.71 325.67"/></g></g></g><g id="_Группа_16" data-name="&lt;Группа&gt;"><g id="_Группа_17" data-name="&lt;Группа&gt;"><g id="_Группа_18" data-name="&lt;Группа&gt;" class="cls-14"><g id="_Группа_19" data-name="&lt;Группа&gt;"><path id="_Контур_8" data-name="&lt;Контур&gt;" class="cls-4" d="M398.48,334a.44.44,0,0,1,0,.83,1.57,1.57,0,0,1-1.43,0l-3.41-2a.44.44,0,0,1,0-.83,1.57,1.57,0,0,1,1.43,0Z"/></g></g></g><g id="_Группа_20" data-name="&lt;Группа&gt;"><g id="_Группа_21" data-name="&lt;Группа&gt;" class="cls-14"><g id="_Группа_22" data-name="&lt;Группа&gt;"><path id="_Контур_9" data-name="&lt;Контур&gt;" class="cls-4" d="M395.71,335.58a.44.44,0,0,1,0,.83,1.57,1.57,0,0,1-1.43,0l-3.41-2a.44.44,0,0,1,0-.83,1.57,1.57,0,0,1,1.43,0Z"/></g></g></g></g></g></g></g></svg>