<svg xmlns="http://www.w3.org/2000/svg" width="320" height="1318" viewBox="0 0 320 1318">
    <path fill="#1D2249" fill-rule="nonzero" d="M-16 1097.046h-.5v-663.64C-32.467 424.453-44 407.19-44 385.803V54.29C-44 12.37.311-13.708 35.47 7.582l135.89 82.191 138.123 83.566c16.206 10.184 26.017 27.817 26.017 46.762s-9.81 36.579-26.017 46.762L171.36 350.32 35.47 432.51c-17.222 10.429-36.64 9.493-51.97.896v-213.36h352V883.41c16.226 8.872 28 26.271 28 47.88v331.514c0 41.92-44.311 67.997-79.47 46.707l-135.89-82.19-138.123-83.457C-6.19 1133.68-16 1116.046-16 1097.101v-.055z"/>
</svg>
