<svg xmlns="http://www.w3.org/2000/svg" width="14" height="14" viewBox="0 0 14 14">
    <g fill="#00B1FF" fill-rule="nonzero">
        <path d="M13.133 0H8.321a.864.864 0 0 0 0 1.725h2.73L6.497 6.28a.857.857 0 0 0-.253.61c0 .23.09.447.253.61.163.163.38.253.61.253.23 0 .447-.09.61-.253l4.554-4.554v2.73a.864.864 0 0 0 1.725 0V.863A.864.864 0 0 0 13.133 0z"/>
        <path d="M9.915 12.517H1.48V4.081h6.345l1.479-1.479H.739a.74.74 0 0 0-.739.74v9.915c0 .408.331.74.74.74h9.915a.74.74 0 0 0 .74-.74V4.694l-1.48 1.478v6.345z"/>
    </g>
</svg>
