<svg xmlns="http://www.w3.org/2000/svg" width="60" height="43" viewBox="0 0 60 43">
    <path fill="#00B1FF" fill-rule="nonzero" d="M31.402 42.716c-.001 0 0 0 0 0-6.815 0-14.235-.214-22.052-.634-4.618-.252-8.2-3.799-8.71-8.626a114.748 114.748 0 0 1 0-24.199C1.149 4.47 4.726.923 9.34.634c13.48-.845 27.353-.845 41.25 0 4.667.282 8.164 3.745 8.704 8.618.85 7.717.852 15.857.001 24.2-.492 4.825-3.985 8.292-8.693 8.628-5.924.422-12.384.636-19.2.636zM29.808 2.292c-6.794 0-13.632.213-20.326.632-3.525.22-6.16 2.863-6.554 6.575a112.494 112.494 0 0 0 0 23.717c.395 3.742 3.025 6.384 6.545 6.576 7.776.418 15.154.631 21.927.631 6.761 0 13.166-.212 19.036-.63 3.553-.254 6.192-2.895 6.566-6.572.836-8.183.836-16.162.001-23.718-.41-3.723-3.045-6.367-6.554-6.58-6.9-.419-13.846-.631-20.641-.631zm-5.705 10.943v15.738l15.171-7.816-15.17-7.922z"/>
</svg>
