<svg xmlns="http://www.w3.org/2000/svg" width="191" height="40" viewBox="0 0 191 40">
    <defs>
        <linearGradient id="a" x1="50%" x2="50%" y1="0%" y2="100%">
            <stop offset="0%" stop-color="#0053FF"/>
            <stop offset="100%" stop-color="#00B4FF"/>
        </linearGradient>
    </defs>
    <g fill="none" fill-rule="evenodd">
        <path fill="url(#a)" fill-rule="nonzero" d="M32.129 15.755a5.023 5.023 0 0 1 2.365 4.25 5.023 5.023 0 0 1-2.365 4.25L19.575 31.84 7.223 39.31C4.028 41.245 0 38.875 0 35.065V4.935C0 1.125 4.028-1.245 7.223.69l12.352 7.47 12.554 7.595z"/>
        <path fill="#FFF" fill-rule="nonzero" d="M21.725 30.125a80.949 80.949 0 0 0-5.34-10.805c.576-.435.748-1.219.405-1.85a1.438 1.438 0 0 0-1.943-.45 41.985 41.985 0 0 0-5.504-6.665.712.712 0 0 0-.821-.145L5.879 11.6a.748.748 0 0 0-.356.635c0 .258.134.498.356.635 1.217.795 3.312 2.465 6.087 5.675a.237.237 0 0 1-.06.35l-3.866 2.5c.144.552.339 1.089.583 1.605.274.472.616.904 1.015 1.28l4.184-3.085a.272.272 0 0 1 .32.055 97.04 97.04 0 0 1 6.315 9.5c.175.345.601.485.951.313a.694.694 0 0 0 .317-.938zM0 21.5S0 24 2.029 24c2.536 0 5.072-2 5.072-2 .063.53.236 1.04.508 1.5A6.184 6.184 0 0 0 8.623 25l-6.087 4.5A6.528 6.528 0 0 0 0 34.5v-13z"/>
        <path fill="#1D2249" d="M59.18 11.88c.813.467 1.413 1.027 1.8 1.68.053.093.08.2.08.32 0 .107-.03.203-.09.29a.65.65 0 0 1-.25.21.557.557 0 0 1-.24.04c-.24 0-.427-.1-.56-.3-.787-1.16-1.927-1.74-3.42-1.74-1.107 0-1.97.25-2.59.75-.62.5-.93 1.197-.93 2.09 0 .747.307 1.373.92 1.88.613.507 1.56.867 2.84 1.08 1.68.28 2.907.797 3.68 1.55.773.753 1.16 1.743 1.16 2.97 0 .92-.203 1.72-.61 2.4-.407.68-.98 1.2-1.72 1.56-.74.36-1.597.54-2.57.54-1.253 0-2.34-.257-3.26-.77-.92-.513-1.607-1.217-2.06-2.11a.533.533 0 0 1-.06-.24c0-.16.057-.293.17-.4a.63.63 0 0 1 .45-.16c.267 0 .46.127.58.38.36.667.897 1.183 1.61 1.55.713.367 1.57.55 2.57.55 1.147 0 2.05-.287 2.71-.86.66-.573.99-1.387.99-2.44 0-.907-.323-1.657-.97-2.25s-1.603-.977-2.87-1.15c-1.48-.213-2.643-.697-3.49-1.45-.847-.753-1.27-1.67-1.27-2.75 0-.773.197-1.457.59-2.05.393-.593.947-1.053 1.66-1.38.713-.327 1.537-.49 2.47-.49a5.29 5.29 0 0 1 2.68.7zm6.07 4.34a.603.603 0 0 1 .43-.16c.187 0 .333.053.44.16.107.107.16.253.16.44v9.74a.603.603 0 0 1-.16.43.575.575 0 0 1-.44.17.583.583 0 0 1-.6-.6v-9.74c0-.187.057-.333.17-.44zm1.08-4.08c.18.16.27.387.27.68a.91.91 0 0 1-.27.67.91.91 0 0 1-.67.27.877.877 0 0 1-.66-.27.928.928 0 0 1-.26-.67c0-.293.093-.52.28-.68a.982.982 0 0 1 .66-.24c.253 0 .47.08.65.24zm17.63 4.38c.627.4 1.113.957 1.46 1.67s.52 1.523.52 2.43v5.78a.603.603 0 0 1-.16.43.575.575 0 0 1-.44.17.583.583 0 0 1-.6-.6v-5.78c0-1.027-.273-1.867-.82-2.52-.547-.653-1.247-.98-2.1-.98-.933 0-1.687.307-2.26.92-.573.613-.847 1.427-.82 2.44v5.92a.603.603 0 0 1-.16.43.575.575 0 0 1-.44.17.583.583 0 0 1-.6-.6v-5.78c0-1.027-.273-1.867-.82-2.52-.547-.653-1.247-.98-2.1-.98-.92 0-1.673.293-2.26.88-.587.587-.88 1.347-.88 2.28v6.12a.603.603 0 0 1-.16.43.575.575 0 0 1-.44.17.583.583 0 0 1-.6-.6v-9.74c0-.187.057-.333.17-.44a.603.603 0 0 1 .43-.16c.187 0 .333.053.44.16.107.107.16.253.16.44v.78c.373-.48.833-.853 1.38-1.12a3.961 3.961 0 0 1 1.76-.4c.773 0 1.467.19 2.08.57.613.38 1.1.903 1.46 1.57a4 4 0 0 1 1.5-1.57c.64-.38 1.36-.57 2.16-.57s1.513.2 2.14.6zm13.82.15a5.291 5.291 0 0 1 2.01 2.01c.487.853.73 1.807.73 2.86 0 1.04-.243 1.987-.73 2.84a5.291 5.291 0 0 1-2.01 2.01c-.853.487-1.807.73-2.86.73-.947 0-1.803-.203-2.57-.61a4.656 4.656 0 0 1-1.81-1.67v6.24c0 .187-.053.333-.16.44-.107.107-.253.16-.44.16a.603.603 0 0 1-.43-.16.575.575 0 0 1-.17-.44v-9.66c.013-1.027.267-1.96.76-2.8a5.28 5.28 0 0 1 2.01-1.97c.847-.473 1.783-.71 2.81-.71 1.053 0 2.007.243 2.86.73zm-.62 8.75a4.234 4.234 0 0 0 1.58-1.6c.387-.68.58-1.44.58-2.28 0-.84-.193-1.6-.58-2.28a4.309 4.309 0 0 0-1.58-1.61c-.667-.393-1.413-.59-2.24-.59-.827 0-1.573.197-2.24.59-.667.393-1.19.93-1.57 1.61-.38.68-.57 1.44-.57 2.28 0 .84.19 1.6.57 2.28.38.68.903 1.213 1.57 1.6s1.413.58 2.24.58c.827 0 1.573-.193 2.24-.58zm6.13-13.88a.603.603 0 0 1 .43-.16c.187 0 .333.053.44.16.107.107.16.253.16.44V23.7c0 .613.13 1.117.39 1.51s.597.59 1.01.59h.5c.147 0 .267.053.36.16.093.107.14.253.14.44a.603.603 0 0 1-.16.43.575.575 0 0 1-.44.17h-.4c-.76 0-1.383-.307-1.87-.92-.487-.613-.73-1.407-.73-2.38V11.98c0-.187.057-.333.17-.44zm12.78 5.11a4.756 4.756 0 0 1 1.79 1.91c.427.813.64 1.74.64 2.78 0 .173-.053.31-.16.41a.59.59 0 0 1-.42.15h-8.38c.04.787.247 1.49.62 2.11.373.62.873 1.103 1.5 1.45s1.327.52 2.1.52c.52 0 1.043-.09 1.57-.27.527-.18.943-.417 1.25-.71a.663.663 0 0 1 .42-.16c.147 0 .267.04.36.12.147.12.22.26.22.42 0 .133-.06.26-.18.38-.427.387-.983.707-1.67.96-.687.253-1.343.38-1.97.38-1.053 0-1.99-.237-2.81-.71a5.058 5.058 0 0 1-1.93-1.98c-.467-.847-.7-1.803-.7-2.87 0-1.08.217-2.043.65-2.89a4.842 4.842 0 0 1 1.82-1.98c.78-.473 1.67-.71 2.67-.71.973 0 1.843.23 2.61.69zm-5.24 1.47c-.713.693-1.137 1.607-1.27 2.74h7.78c-.093-1.133-.493-2.047-1.2-2.74-.707-.693-1.6-1.04-2.68-1.04-1.04 0-1.917.347-2.63 1.04zm25.81-6.44c.2.2.3.447.3.74v13.54c0 .293-.103.54-.31.74-.207.2-.45.3-.73.3-.293 0-.54-.1-.74-.3-.2-.2-.3-.447-.3-.74v-9.94l-4.84 9.86c-.227.347-.527.52-.9.52-.44 0-.76-.207-.96-.62l-4.78-9.58v9.76c0 .293-.1.54-.3.74-.2.2-.447.3-.74.3s-.54-.1-.74-.3c-.2-.2-.3-.447-.3-.74V12.42c0-.293.1-.54.3-.74.2-.2.447-.3.74-.3.4 0 .707.187.92.56l5.94 11.9 5.78-11.9c.213-.373.52-.56.92-.56.293 0 .54.1.74.3zm4.59 4.66c.193-.187.437-.28.73-.28.307 0 .553.093.74.28.187.187.28.433.28.74v8.9c0 .293-.093.537-.28.73-.187.193-.433.29-.74.29a.99.99 0 0 1-1.02-1.02v-8.9c0-.307.097-.553.29-.74zm1.66-4.31c.26.26.39.57.39.93 0 .36-.13.67-.39.93s-.57.39-.93.39c-.36 0-.67-.13-.93-.39a1.27 1.27 0 0 1-.39-.93c0-.36.13-.67.39-.93s.57-.39.93-.39c.36 0 .67.13.93.39zm11.81 4.53c.733.4 1.307.983 1.72 1.75.413.767.62 1.69.62 2.77V26a.99.99 0 0 1-1.02 1.02A.99.99 0 0 1 155 26v-4.92c0-1.08-.29-1.897-.87-2.45-.58-.553-1.35-.83-2.31-.83-.56 0-1.07.113-1.53.34-.46.227-.82.533-1.08.92-.26.387-.39.82-.39 1.3V26c0 .293-.093.537-.28.73-.187.193-.433.29-.74.29a.99.99 0 0 1-1.02-1.02v-8.92c0-.307.097-.553.29-.74.193-.187.437-.28.73-.28.307 0 .553.093.74.28.187.187.28.433.28.74v.22a4.445 4.445 0 0 1 1.52-.99 5.04 5.04 0 0 1 1.88-.35c.92 0 1.747.2 2.48.6zm6.21-.22c.193-.187.437-.28.73-.28.307 0 .553.093.74.28.187.187.28.433.28.74v8.9c0 .293-.093.537-.28.73-.187.193-.433.29-.74.29a.99.99 0 0 1-1.02-1.02v-8.9c0-.307.097-.553.29-.74zm1.66-4.31c.26.26.39.57.39.93 0 .36-.13.67-.39.93s-.57.39-.93.39c-.36 0-.67-.13-.93-.39a1.27 1.27 0 0 1-.39-.93c0-.36.13-.67.39-.93s.57-.39.93-.39c.36 0 .67.13.93.39zm11.81 4.53c.733.4 1.307.983 1.72 1.75.413.767.62 1.69.62 2.77V26a.99.99 0 0 1-1.02 1.02.99.99 0 0 1-1.02-1.02v-4.92c0-1.08-.29-1.897-.87-2.45-.58-.553-1.35-.83-2.31-.83-.56 0-1.07.113-1.53.34-.46.227-.82.533-1.08.92-.26.387-.39.82-.39 1.3V26c0 .293-.093.537-.28.73-.187.193-.433.29-.74.29a.99.99 0 0 1-1.02-1.02v-8.92c0-.307.097-.553.29-.74.193-.187.437-.28.73-.28.307 0 .553.093.74.28.187.187.28.433.28.74v.22a4.445 4.445 0 0 1 1.52-.99 5.04 5.04 0 0 1 1.88-.35c.92 0 1.747.2 2.48.6zm13.51.13a5.106 5.106 0 0 1 1.96 1.97c.473.84.71 1.8.71 2.88v4.32c0 1.053-.233 2.013-.7 2.88a5.202 5.202 0 0 1-1.97 2.05c-.847.5-1.803.75-2.87.75-.96 0-1.853-.19-2.68-.57a5.6 5.6 0 0 1-2.08-1.63c-.147-.187-.22-.373-.22-.56 0-.28.14-.52.42-.72.187-.12.373-.18.56-.18.333 0 .607.14.82.42.36.467.813.823 1.36 1.07.547.247 1.167.37 1.86.37.653 0 1.247-.157 1.78-.47.533-.313.96-.773 1.28-1.38.32-.607.48-1.33.48-2.17v-.98a4.626 4.626 0 0 1-1.64 1.72c-.68.413-1.447.62-2.3.62-.987 0-1.87-.237-2.65-.71a4.857 4.857 0 0 1-1.82-1.97c-.433-.84-.65-1.793-.65-2.86 0-1.08.233-2.04.7-2.88a5.017 5.017 0 0 1 1.96-1.97c.84-.473 1.793-.71 2.86-.71 1.053 0 1.997.237 2.83.71zm-1 8.11c.54-.32.96-.763 1.26-1.33.3-.567.45-1.21.45-1.93s-.15-1.367-.45-1.94c-.3-.573-.72-1.02-1.26-1.34-.54-.32-1.15-.48-1.83-.48-.68 0-1.29.16-1.83.48a3.37 3.37 0 0 0-1.27 1.34c-.307.573-.46 1.22-.46 1.94s.153 1.363.46 1.93c.307.567.73 1.01 1.27 1.33.54.32 1.15.48 1.83.48.68 0 1.29-.16 1.83-.48z"/>
    </g>
</svg>
